<mxfile host="app.diagrams.net" agent="Mozilla/5.0 (X11; Linux x86_64) AppleWebKit/537.36 (KHTML, like Gecko) Chrome/132.0.0.0 Safari/537.36" version="26.0.10">
  <diagram name="Página-1" id="8jDf2lMUFapNkQqpRnfY">
    <mxGraphModel dx="1390" dy="826" grid="1" gridSize="10" guides="1" tooltips="1" connect="1" arrows="1" fold="1" page="1" pageScale="1" pageWidth="850" pageHeight="1100" math="0" shadow="0">
      <root>
        <mxCell id="0" />
        <mxCell id="1" parent="0" />
        <mxCell id="9LTu-xw-SD_NPVUrVumf-3" style="edgeStyle=orthogonalEdgeStyle;rounded=1;orthogonalLoop=1;jettySize=auto;html=1;exitX=0.5;exitY=1;exitDx=0;exitDy=0;entryX=0.5;entryY=0;entryDx=0;entryDy=0;curved=1;labelBackgroundColor=none;strokeColor=#09555B;fontColor=default;" edge="1" parent="1" source="9LTu-xw-SD_NPVUrVumf-1" target="9LTu-xw-SD_NPVUrVumf-2">
          <mxGeometry relative="1" as="geometry" />
        </mxCell>
        <mxCell id="9LTu-xw-SD_NPVUrVumf-1" value="Inicio" style="ellipse;whiteSpace=wrap;html=1;rounded=1;labelBackgroundColor=none;fillColor=#FAD9D5;strokeColor=#D0CEE2;fontColor=#1A1A1A;" vertex="1" parent="1">
          <mxGeometry x="365" y="30" width="120" height="80" as="geometry" />
        </mxCell>
        <mxCell id="9LTu-xw-SD_NPVUrVumf-11" style="edgeStyle=orthogonalEdgeStyle;rounded=1;orthogonalLoop=1;jettySize=auto;html=1;entryX=0.5;entryY=0;entryDx=0;entryDy=0;curved=1;labelBackgroundColor=none;strokeColor=#09555B;fontColor=default;" edge="1" parent="1" source="9LTu-xw-SD_NPVUrVumf-2" target="9LTu-xw-SD_NPVUrVumf-10">
          <mxGeometry relative="1" as="geometry" />
        </mxCell>
        <mxCell id="9LTu-xw-SD_NPVUrVumf-2" value="El desarrollador crea archivo con la descripción de la gramática.&lt;br&gt;&lt;br&gt;(Falta definir cómo se definirá la gramática)" style="shape=document;whiteSpace=wrap;html=1;boundedLbl=1;rounded=1;labelBackgroundColor=none;fillColor=#FAD9D5;strokeColor=#D0CEE2;fontColor=#1A1A1A;" vertex="1" parent="1">
          <mxGeometry x="322" y="140" width="207" height="120" as="geometry" />
        </mxCell>
        <mxCell id="9LTu-xw-SD_NPVUrVumf-9" value="Aún no decido el nombre, pero digamos que por el momento, el programa se llama Joy" style="verticalLabelPosition=middle;verticalAlign=middle;html=1;shape=mxgraph.basic.patternFillRect;fillStyle=diagGrid;step=5;fillStrokeWidth=0.2;fillStrokeColor=#dddddd;labelPosition=center;align=center;whiteSpace=wrap;rounded=1;labelBackgroundColor=none;fillColor=#FAD9D5;strokeColor=#D0CEE2;fontColor=#1A1A1A;" vertex="1" parent="1">
          <mxGeometry x="80" y="40" width="190" height="80" as="geometry" />
        </mxCell>
        <mxCell id="9LTu-xw-SD_NPVUrVumf-13" style="edgeStyle=orthogonalEdgeStyle;rounded=1;orthogonalLoop=1;jettySize=auto;html=1;entryX=0.5;entryY=0;entryDx=0;entryDy=0;curved=1;labelBackgroundColor=none;strokeColor=#09555B;fontColor=default;" edge="1" parent="1" source="9LTu-xw-SD_NPVUrVumf-10" target="9LTu-xw-SD_NPVUrVumf-12">
          <mxGeometry relative="1" as="geometry" />
        </mxCell>
        <mxCell id="9LTu-xw-SD_NPVUrVumf-10" value="Joy lee el archivo con la gramática" style="shape=process;whiteSpace=wrap;html=1;backgroundOutline=1;rounded=1;labelBackgroundColor=none;fillColor=#FAD9D5;strokeColor=#D0CEE2;fontColor=#1A1A1A;" vertex="1" parent="1">
          <mxGeometry x="343" y="320" width="165" height="60" as="geometry" />
        </mxCell>
        <mxCell id="9LTu-xw-SD_NPVUrVumf-12" value="Joy genera un archivo .hs con varias utilidades para el desarrollador de un lenguaje" style="shape=parallelogram;perimeter=parallelogramPerimeter;whiteSpace=wrap;html=1;fixedSize=1;rounded=1;labelBackgroundColor=none;fillColor=#FAD9D5;strokeColor=#D0CEE2;fontColor=#1A1A1A;" vertex="1" parent="1">
          <mxGeometry x="304" y="430" width="242" height="80" as="geometry" />
        </mxCell>
        <mxCell id="9LTu-xw-SD_NPVUrVumf-22" style="edgeStyle=orthogonalEdgeStyle;rounded=1;orthogonalLoop=1;jettySize=auto;html=1;curved=1;labelBackgroundColor=none;strokeColor=#09555B;fontColor=default;" edge="1" parent="1" source="9LTu-xw-SD_NPVUrVumf-14" target="9LTu-xw-SD_NPVUrVumf-19">
          <mxGeometry relative="1" as="geometry" />
        </mxCell>
        <mxCell id="9LTu-xw-SD_NPVUrVumf-24" style="edgeStyle=orthogonalEdgeStyle;rounded=1;orthogonalLoop=1;jettySize=auto;html=1;curved=1;labelBackgroundColor=none;strokeColor=#09555B;fontColor=default;" edge="1" parent="1" source="9LTu-xw-SD_NPVUrVumf-14" target="9LTu-xw-SD_NPVUrVumf-20">
          <mxGeometry relative="1" as="geometry" />
        </mxCell>
        <mxCell id="9LTu-xw-SD_NPVUrVumf-25" style="edgeStyle=orthogonalEdgeStyle;rounded=1;orthogonalLoop=1;jettySize=auto;html=1;curved=1;labelBackgroundColor=none;strokeColor=#09555B;fontColor=default;" edge="1" parent="1" source="9LTu-xw-SD_NPVUrVumf-14" target="9LTu-xw-SD_NPVUrVumf-21">
          <mxGeometry relative="1" as="geometry" />
        </mxCell>
        <mxCell id="9LTu-xw-SD_NPVUrVumf-14" value="" style="verticalLabelPosition=bottom;html=1;verticalAlign=top;align=center;strokeColor=none;fillColor=#FAD9D5;shape=mxgraph.azure.cloud_service_package_file;rounded=1;labelBackgroundColor=none;fontColor=#1A1A1A;" vertex="1" parent="1">
          <mxGeometry x="405" y="530" width="42.5" height="50" as="geometry" />
        </mxCell>
        <mxCell id="9LTu-xw-SD_NPVUrVumf-19" value="Generadores (Mónada Gen o Random)" style="rounded=1;whiteSpace=wrap;html=1;labelBackgroundColor=none;fillColor=#FAD9D5;strokeColor=#D0CEE2;fontColor=#1A1A1A;" vertex="1" parent="1">
          <mxGeometry x="140" y="640" width="140" height="60" as="geometry" />
        </mxCell>
        <mxCell id="9LTu-xw-SD_NPVUrVumf-20" value="Ejecución de los generadores con parámetros (i.e. Profundidad del árbol, tipos de dato, reglas de producción)" style="rounded=1;whiteSpace=wrap;html=1;labelBackgroundColor=none;fillColor=#FAD9D5;strokeColor=#D0CEE2;fontColor=#1A1A1A;" vertex="1" parent="1">
          <mxGeometry x="327.25" y="640" width="198" height="60" as="geometry" />
        </mxCell>
        <mxCell id="9LTu-xw-SD_NPVUrVumf-21" value="Evaluación de una expresión bajo un intérprete existente en el S.O." style="rounded=1;whiteSpace=wrap;html=1;labelBackgroundColor=none;fillColor=#FAD9D5;strokeColor=#D0CEE2;fontColor=#1A1A1A;" vertex="1" parent="1">
          <mxGeometry x="560" y="640" width="210" height="60" as="geometry" />
        </mxCell>
        <mxCell id="9LTu-xw-SD_NPVUrVumf-26" style="edgeStyle=orthogonalEdgeStyle;rounded=1;orthogonalLoop=1;jettySize=auto;html=1;exitX=0.5;exitY=1;exitDx=0;exitDy=0;entryX=0.5;entryY=0;entryDx=0;entryDy=0;entryPerimeter=0;curved=1;labelBackgroundColor=none;strokeColor=#09555B;fontColor=default;" edge="1" parent="1" source="9LTu-xw-SD_NPVUrVumf-12" target="9LTu-xw-SD_NPVUrVumf-14">
          <mxGeometry relative="1" as="geometry" />
        </mxCell>
      </root>
    </mxGraphModel>
  </diagram>
</mxfile>
